<svg xmlns="http://www.w3.org/2000/svg" xmlns:xlink="http://www.w3.org/1999/xlink" xmlns:lucid="lucid" width="1173" height="377"><g transform="translate(-59 -169)" lucid:page-tab-id="0_0"><path d="M228 207.2c17.67 0 32 17.9 32 40s-14.33 40-32 40h-96c-17.67 0-32-17.9-32-40s14.33-40 32-40z" stroke="#000" stroke-opacity="0" fill="#ff741d"/><use xlink:href="#a" transform="matrix(1,0,0,1,105.00000000000023,212.20537968732788) translate(56.025 38.6)"/><path d="M100 399c0-4.43 3.55-8.45 7.94-9l144.12-17.94c4.4-.55 7.94 2.6 7.94 7v104c0 4.43-3.58 8-8 8H108c-4.42 0-8-3.57-8-8z" stroke="#000" stroke-opacity="0" stroke-width="2" fill="#ff8839"/><use xlink:href="#b" transform="matrix(1,0,0,1,105.00000000000023,396.071518749328) translate(15.074999999999996 37.8)"/><use xlink:href="#c" transform="matrix(1,0,0,1,105.00000000000023,396.071518749328) translate(70.975 37.8)"/><use xlink:href="#d" transform="matrix(1,0,0,1,105.00000000000023,396.071518749328) translate(111.975 37.8)"/><use xlink:href="#e" transform="matrix(1,0,0,1,105.00000000000023,396.071518749328) translate(56 59.4)"/><path d="M1113.6 375.8c3.53-2.65 9.27-2.65 12.8 0l67.2 50.4c3.53 2.65 3.53 6.95 0 9.6l-67.2 50.4c-3.53 2.65-9.27 2.65-12.8 0l-67.2-50.4c-3.53-2.65-3.53-6.95 0-9.6z" stroke="#fe5900" stroke-width="4" fill="#fff"/><use xlink:href="#f" transform="matrix(1,0,0,1,1045,376) translate(23.549999999999997 47.8)"/><use xlink:href="#g" transform="matrix(1,0,0,1,1045,376) translate(79.45 47.8)"/><use xlink:href="#h" transform="matrix(1,0,0,1,1045,376) translate(36.574999999999996 69.4)"/><path d="M340 379.07c0-4.42 3.58-8 8-8h144c4.42 0 8 3.58 8 8v104c0 4.42-3.58 8-8 8H348c-4.42 0-8-3.58-8-8z" stroke="#000" stroke-opacity="0" stroke-width="2" fill="#ff8839"/><use xlink:href="#i" transform="matrix(1,0,0,1,345.00000000000045,376.071518749328) translate(2.5749999999999886 47.8)"/><use xlink:href="#j" transform="matrix(1,0,0,1,345.00000000000045,376.071518749328) translate(45.57499999999999 47.8)"/><use xlink:href="#k" transform="matrix(1,0,0,1,345.00000000000045,376.071518749328) translate(63.52499999999999 47.8)"/><use xlink:href="#l" transform="matrix(1,0,0,1,345.00000000000045,376.071518749328) translate(26.1 69.4)"/><use xlink:href="#m" transform="matrix(1,0,0,1,345.00000000000045,376.071518749328) translate(52.05 69.4)"/><use xlink:href="#n" transform="matrix(1,0,0,1,345.00000000000045,376.071518749328) translate(74.94999999999999 69.4)"/><path d="M180 287.7v30.45c0 .37.3.67.67.67.37 0 .67.3.67.67v44.98" stroke="#666" fill="none"/><path d="M180.5 287.72h-1v-.5h1z" fill="#666"/><path d="M181.34 379.25l-4.63-14.27H186z" stroke="#666" fill="#666"/><path d="M260.5 431.07h63.12" stroke="#666" fill="none"/><path d="M260.5 431.57h-.5v-1h.5z" fill="#666"/><path d="M338.38 431.07l-14.26 4.64v-9.26z" stroke="#666" fill="#666"/><path d="M500.5 431.07H810V431h215.47" stroke="#666" fill="none"/><path d="M500.5 431.57h-.5v-1h.5z" fill="#666"/><path d="M1040.24 431l-14.27 4.64v-9.28z" stroke="#666" fill="#666"/><path d="M500.5 431.07H563.12" stroke="#666" fill="none"/><path d="M500.5 431.57h-.5v-1h.5z" fill="#666"/><path d="M577.88 431.07l-14.26 4.64v-9.26z" stroke="#666" fill="#666"/><path d="M580 399c0-4.43 3.55-8.45 7.94-9l144.12-17.94c4.4-.55 7.94 2.6 7.94 7v104c0 4.43-3.58 8-8 8H588c-4.42 0-8-3.57-8-8z" stroke="#fff" fill="#ff741d"/><g><use xlink:href="#o" transform="matrix(1,0,0,1,585,396.0715187493115) translate(5.625 37.8)"/><use xlink:href="#p" transform="matrix(1,0,0,1,585,396.0715187493115) translate(37.625 37.8)"/><use xlink:href="#q" transform="matrix(1,0,0,1,585,396.0715187493115) translate(65.575 37.8)"/><use xlink:href="#r" transform="matrix(1,0,0,1,585,396.0715187493115) translate(117.47500000000001 37.8)"/><use xlink:href="#s" transform="matrix(1,0,0,1,585,396.0715187493115) translate(48.375 59.4)"/></g><path d="M800 398c0-4.43 3.55-8.45 7.94-9l144.12-17.94c4.4-.55 7.94 2.6 7.94 7v104c0 4.43-3.58 8-8 8H808c-4.42 0-8-3.57-8-8z" stroke="#fff" fill="#ff741d"/><g><use xlink:href="#t" transform="matrix(1,0,0,1,805,395.071518749328) translate(33.05 27)"/><use xlink:href="#u" transform="matrix(1,0,0,1,805,395.071518749328) translate(70.05 27)"/><use xlink:href="#v" transform="matrix(1,0,0,1,805,395.071518749328) translate(16.624999999999993 48.6)"/><use xlink:href="#w" transform="matrix(1,0,0,1,805,395.071518749328) translate(112.42500000000001 48.6)"/><use xlink:href="#x" transform="matrix(1,0,0,1,805,395.071518749328) translate(50.525 70.2)"/></g><path d="M364 274.04c-13.25 0-24-10.75-24-24 0-10.6 6.5-19.55 16.58-22.83C356 196.05 396 190.05 412 202.05c8-18 48-12 48 6 24-6 48 18 32 48 16 24 0 54-32 42-8 15.6-40 15.6-48 0-16 12-48 6-48-24z" stroke="#fff" fill="#ff741d"/><g><use xlink:href="#y" transform="matrix(1,0,0,1,345,195.03575937473215) translate(20.074999999999996 47.8)"/><use xlink:href="#z" transform="matrix(1,0,0,1,345,195.03575937473215) translate(71.975 47.8)"/><use xlink:href="#A" transform="matrix(1,0,0,1,345,195.03575937473215) translate(41.574999999999996 69.4)"/></g><path d="M420 354.7v-31.85" stroke="#666" fill="none"/><path d="M420 369.45l-4.64-14.26h9.28zM420 308.08l4.64 14.27h-9.28z" stroke="#666" fill="#666"/><defs><path fill="#fff" d="M194-120c59 52 2 134-86 124-53-6-90-18-98-63l31-7c8 30 29 43 70 43 46 0 84-17 71-62-32-43-135-20-137-98-3-89 178-90 191-16l-30 9c-8-48-127-53-127 5 0 53 81 35 115 65" id="B"/><path fill="#fff" d="M51-54c-9 22 5 41 31 30L79-1C43 14 10-4 19-52l22-115H19l5-23h22l19-43h21l-9 43h35l-4 23H73" id="C"/><path fill="#fff" d="M165-48c-4 18 1 34 23 27l-3 20c-29 8-62 0-52-35h-2C116-14 99 4 63 4 30 4 8-16 8-49c0-68 71-67 138-67 10-26 0-56-31-54-26 1-42 9-47 31l-32-5c8-67 160-71 144 15-5 28-9 54-15 81zM42-50c3 52 80 24 89-6 7-12 7-24 11-38-47 1-103-4-100 44" id="D"/><path fill="#fff" d="M66-151c12-25 30-51 66-40l-6 26C45-176 58-65 38 0H6l36-190h30" id="E"/><g id="a"><use transform="matrix(0.05,0,0,0.05,0,0)" xlink:href="#B"/><use transform="matrix(0.05,0,0,0.05,12,0)" xlink:href="#C"/><use transform="matrix(0.05,0,0,0.05,17,0)" xlink:href="#D"/><use transform="matrix(0.05,0,0,0.05,27,0)" xlink:href="#E"/><use transform="matrix(0.05,0,0,0.05,32.95,0)" xlink:href="#C"/></g><path fill="#fff" d="M187 0l-14-72H61L19 0h-37l149-248h38L221 0h-34zm-19-99l-22-123L76-99h92" id="F"/><path fill="#fff" d="M133-28C103 26-5 8 13-77c13-62 24-115 90-117 29-1 46 15 56 35l19-102h32L160 0h-30zM45-64c-2 27 10 43 35 43 54-1 69-50 69-103 0-29-15-46-42-46-53-1-58 58-62 106" id="G"/><path fill="#fff" d="M248-111c6-24 9-61-24-58-72 9-57 108-77 169h-31l26-142c3-37-50-30-64-10C52-115 50-51 37 0H6l36-190h30c-1 10-6 24-4 32 13-43 101-52 105 5 13-22 29-41 61-41 90 0 28 129 23 194h-31" id="H"/><path fill="#fff" d="M50-231l6-30h32l-6 30H50zM6 0l37-190h31L37 0H6" id="I"/><path fill="#fff" d="M67-158c22-48 132-52 116 29L158 0h-32l25-140c3-38-53-32-70-12C52-117 51-52 38 0H6l36-190h30" id="J"/><g id="b"><use transform="matrix(0.05,0,0,0.05,0,0)" xlink:href="#F"/><use transform="matrix(0.05,0,0,0.05,12,0)" xlink:href="#G"/><use transform="matrix(0.05,0,0,0.05,22,0)" xlink:href="#H"/><use transform="matrix(0.05,0,0,0.05,36.95,0)" xlink:href="#I"/><use transform="matrix(0.05,0,0,0.05,40.900000000000006,0)" xlink:href="#J"/></g><path fill="#fff" d="M111-194c62-3 86 47 72 106H45c-7 38 6 69 45 68 27-1 43-14 53-32l24 11C152-15 129 4 87 4 38 3 12-23 12-71c0-70 32-119 99-123zm44 81c14-66-71-72-95-28-4 8-8 17-11 28h106" id="K"/><path fill="#fff" d="M55-144c13 50 104 24 104 88C159 21 15 23 1-39l26-10c6 40 102 42 102-4-13-50-104-23-104-87 0-71 143-71 148-8l-29 4c-5-35-85-37-89 0" id="L"/><g id="c"><use transform="matrix(0.05,0,0,0.05,0,0)" xlink:href="#B"/><use transform="matrix(0.05,0,0,0.05,12,0)" xlink:href="#K"/><use transform="matrix(0.05,0,0,0.05,22,0)" xlink:href="#C"/><use transform="matrix(0.05,0,0,0.05,27,0)" xlink:href="#L"/></g><path fill="#fff" d="M62-99C39-31 123 0 170-40s38-139 58-208h34C234-144 253 4 115 4 49 4 18-43 31-112l26-136h34" id="M"/><path fill="#fff" d="M67-162c32-53 139-36 121 50C175-51 163 2 97 4 68 4 52-11 42-31 38 6 28 39 22 75H-9l50-265h29c-1 10 0 20-3 28zm89 36c0-26-10-43-35-43-54 0-67 50-69 103-1 29 14 45 42 46 53 0 62-58 62-106" id="N"/><g id="d"><use transform="matrix(0.05,0,0,0.05,0,0)" xlink:href="#M"/><use transform="matrix(0.05,0,0,0.05,12.950000000000001,0)" xlink:href="#N"/></g><path fill="#fff" d="M20-101c0-91 52-143 145-150 126-9 127 168 53 223-23 17-55 32-93 32C57 4 20-33 20-101zm216-33c5-57-18-91-73-90-77 1-110 51-110 125 0 49 23 75 73 75 72-1 104-45 110-110" id="O"/><g id="e"><use transform="matrix(0.05,0,0,0.05,0,0)" xlink:href="#B"/><use transform="matrix(0.05,0,0,0.05,12,0)" xlink:href="#B"/><use transform="matrix(0.05,0,0,0.05,24,0)" xlink:href="#O"/></g><path d="M205 0l-28-72H64L36 0H1l101-248h38L239 0h-34zm-38-99l-47-123c-12 45-31 82-46 123h93" id="P"/><path d="M85-194c31 0 48 13 60 33l-1-100h32l1 261h-30c-2-10 0-23-3-31C134-8 116 4 85 4 32 4 16-35 15-94c0-66 23-100 70-100zm9 24c-40 0-46 34-46 75 0 40 6 74 45 74 42 0 51-32 51-76 0-42-9-74-50-73" id="Q"/><path d="M210-169c-67 3-38 105-44 169h-31v-121c0-29-5-50-35-48C34-165 62-65 56 0H25l-1-190h30c1 10-1 24 2 32 10-44 99-50 107 0 11-21 27-35 58-36 85-2 47 119 55 194h-31v-121c0-29-5-49-35-48" id="R"/><path d="M24-231v-30h32v30H24zM24 0v-190h32V0H24" id="S"/><path d="M117-194c89-4 53 116 60 194h-32v-121c0-31-8-49-39-48C34-167 62-67 57 0H25l-1-190h30c1 10-1 24 2 32 11-22 29-35 61-36" id="T"/><g id="f"><use transform="matrix(0.05,0,0,0.05,0,0)" xlink:href="#P"/><use transform="matrix(0.05,0,0,0.05,12,0)" xlink:href="#Q"/><use transform="matrix(0.05,0,0,0.05,22,0)" xlink:href="#R"/><use transform="matrix(0.05,0,0,0.05,36.95,0)" xlink:href="#S"/><use transform="matrix(0.05,0,0,0.05,40.900000000000006,0)" xlink:href="#T"/></g><path d="M185-189c-5-48-123-54-124 2 14 75 158 14 163 119 3 78-121 87-175 55-17-10-28-26-33-46l33-7c5 56 141 63 141-1 0-78-155-14-162-118-5-82 145-84 179-34 5 7 8 16 11 25" id="U"/><path d="M100-194c63 0 86 42 84 106H49c0 40 14 67 53 68 26 1 43-12 49-29l28 8c-11 28-37 45-77 45C44 4 14-33 15-96c1-61 26-98 85-98zm52 81c6-60-76-77-97-28-3 7-6 17-6 28h103" id="V"/><path d="M59-47c-2 24 18 29 38 22v24C64 9 27 4 27-40v-127H5v-23h24l9-43h21v43h35v23H59v120" id="W"/><path d="M84 4C-5 8 30-112 23-190h32v120c0 31 7 50 39 49 72-2 45-101 50-169h31l1 190h-30c-1-10 1-25-2-33-11 22-28 36-60 37" id="X"/><path d="M115-194c55 1 70 41 70 98S169 2 115 4C84 4 66-9 55-30l1 105H24l-1-265h31l2 30c10-21 28-34 59-34zm-8 174c40 0 45-34 45-75s-6-73-45-74c-42 0-51 32-51 76 0 43 10 73 51 73" id="Y"/><g id="g"><use transform="matrix(0.05,0,0,0.05,0,0)" xlink:href="#U"/><use transform="matrix(0.05,0,0,0.05,12,0)" xlink:href="#V"/><use transform="matrix(0.05,0,0,0.05,22,0)" xlink:href="#W"/><use transform="matrix(0.05,0,0,0.05,27,0)" xlink:href="#X"/><use transform="matrix(0.05,0,0,0.05,37,0)" xlink:href="#Y"/></g><path d="M212-179c-10-28-35-45-73-45-59 0-87 40-87 99 0 60 29 101 89 101 43 0 62-24 78-52l27 14C228-24 195 4 139 4 59 4 22-46 18-125c-6-104 99-153 187-111 19 9 31 26 39 46" id="Z"/><path d="M100-194c62-1 85 37 85 99 1 63-27 99-86 99S16-35 15-95c0-66 28-99 85-99zM99-20c44 1 53-31 53-75 0-43-8-75-51-75s-53 32-53 75 10 74 51 75" id="aa"/><path d="M24 0v-261h32V0H24" id="ab"/><g id="h"><use transform="matrix(0.05,0,0,0.05,0,0)" xlink:href="#Z"/><use transform="matrix(0.05,0,0,0.05,12.950000000000001,0)" xlink:href="#aa"/><use transform="matrix(0.05,0,0,0.05,22.950000000000003,0)" xlink:href="#R"/><use transform="matrix(0.05,0,0,0.05,37.900000000000006,0)" xlink:href="#Y"/><use transform="matrix(0.05,0,0,0.05,47.900000000000006,0)" xlink:href="#ab"/><use transform="matrix(0.05,0,0,0.05,51.85,0)" xlink:href="#V"/><use transform="matrix(0.05,0,0,0.05,61.85,0)" xlink:href="#W"/><use transform="matrix(0.05,0,0,0.05,66.85000000000001,0)" xlink:href="#V"/></g><g id="i"><use transform="matrix(0.05,0,0,0.05,0,0)" xlink:href="#B"/><use transform="matrix(0.05,0,0,0.05,12,0)" xlink:href="#B"/><use transform="matrix(0.05,0,0,0.05,24,0)" xlink:href="#O"/></g><g id="j"><use transform="matrix(0.05,0,0,0.05,0,0)" xlink:href="#I"/><use transform="matrix(0.05,0,0,0.05,3.95,0)" xlink:href="#L"/></g><path fill="#fff" d="M44-68c0 29 11 47 38 47 30 0 42-19 51-41l28 9C148-21 126 4 82 4 31 4 10-29 12-85c3-77 74-140 146-93 12 8 15 23 18 40l-31 5c-1-22-13-36-36-36-52 0-65 49-65 101" id="ac"/><path fill="#fff" d="M30-147c31-64 166-65 159 27C183-49 158 1 86 4 9 8 1-88 30-147zM88-20c53 0 68-48 68-100 0-31-11-51-44-50-52 1-68 46-68 97 0 32 13 53 44 53" id="ad"/><path fill="#fff" d="M76-167L44 0H12l33-167H18l4-23h27c3-47 25-81 82-69l-4 24c-35-8-44 15-46 45h37l-5 23H76" id="ae"/><path fill="#fff" d="M103-194c29 0 47 14 56 36 2-11 5-23 8-32h30L160-5C157 61 82 97 21 62 9 55 4 45 1 30l28-7c7 42 83 31 92-3 4-16 9-38 13-55-13 20-29 36-62 36-40 0-60-25-60-64 0-71 23-131 91-131zm4 24c-53 0-58 54-61 104-2 27 10 44 36 44 49 0 65-50 67-102 1-29-15-46-42-46" id="af"/><path fill="#fff" d="M67 3c-93-2-31-127-26-193h32L48-50c-3 39 53 32 70 12 30-34 30-101 43-152h32L157 0h-30c1-10 6-24 4-33-14 20-29 37-64 36" id="ag"/><g id="k"><use transform="matrix(0.05,0,0,0.05,0,0)" xlink:href="#ac"/><use transform="matrix(0.05,0,0,0.05,9,0)" xlink:href="#ad"/><use transform="matrix(0.05,0,0,0.05,19,0)" xlink:href="#J"/><use transform="matrix(0.05,0,0,0.05,29,0)" xlink:href="#ae"/><use transform="matrix(0.05,0,0,0.05,34,0)" xlink:href="#I"/><use transform="matrix(0.05,0,0,0.05,37.95,0)" xlink:href="#af"/><use transform="matrix(0.05,0,0,0.05,47.95,0)" xlink:href="#ag"/><use transform="matrix(0.05,0,0,0.05,57.95,0)" xlink:href="#E"/><use transform="matrix(0.05,0,0,0.05,63.900000000000006,0)" xlink:href="#K"/><use transform="matrix(0.05,0,0,0.05,73.9,0)" xlink:href="#G"/></g><g id="l"><use transform="matrix(0.05,0,0,0.05,0,0)" xlink:href="#ae"/><use transform="matrix(0.05,0,0,0.05,5,0)" xlink:href="#ad"/><use transform="matrix(0.05,0,0,0.05,15,0)" xlink:href="#E"/></g><path fill="#fff" d="M6 0l50-261h32L37 0H6" id="ah"/><g id="m"><use transform="matrix(0.05,0,0,0.05,0,0)" xlink:href="#D"/><use transform="matrix(0.05,0,0,0.05,10,0)" xlink:href="#ah"/><use transform="matrix(0.05,0,0,0.05,13.949999999999998,0)" xlink:href="#ah"/></g><g id="n"><use transform="matrix(0.05,0,0,0.05,0,0)" xlink:href="#C"/><use transform="matrix(0.05,0,0,0.05,5,0)" xlink:href="#K"/><use transform="matrix(0.05,0,0,0.05,15,0)" xlink:href="#D"/><use transform="matrix(0.05,0,0,0.05,25,0)" xlink:href="#H"/><use transform="matrix(0.05,0,0,0.05,39.95,0)" xlink:href="#L"/></g><g id="o"><use transform="matrix(0.05,0,0,0.05,0,0)" xlink:href="#B"/><use transform="matrix(0.05,0,0,0.05,12,0)" xlink:href="#K"/><use transform="matrix(0.05,0,0,0.05,22,0)" xlink:href="#C"/></g><g id="p"><use transform="matrix(0.05,0,0,0.05,0,0)" xlink:href="#M"/><use transform="matrix(0.05,0,0,0.05,12.950000000000001,0)" xlink:href="#N"/></g><path fill="#fff" d="M125-24c46 0 70-25 89-51l25 16C214-24 183 4 123 4 8 4-5-146 60-208c32-50 158-61 191-5 5 7 9 14 11 22l-32 10c-9-28-33-43-69-43-74 0-108 51-108 125 0 46 24 75 72 75" id="ai"/><g id="q"><use transform="matrix(0.05,0,0,0.05,0,0)" xlink:href="#ai"/><use transform="matrix(0.05,0,0,0.05,12.950000000000001,0)" xlink:href="#ah"/><use transform="matrix(0.05,0,0,0.05,16.900000000000002,0)" xlink:href="#ad"/><use transform="matrix(0.05,0,0,0.05,26.900000000000002,0)" xlink:href="#ag"/><use transform="matrix(0.05,0,0,0.05,36.900000000000006,0)" xlink:href="#G"/></g><path fill="#fff" d="M87-220l-18 92h140l-5 28H64L45 0H11l48-248h178l-5 28H87" id="aj"/><g id="r"><use transform="matrix(0.05,0,0,0.05,0,0)" xlink:href="#aj"/><use transform="matrix(0.05,0,0,0.05,10.950000000000001,0)" xlink:href="#ad"/><use transform="matrix(0.05,0,0,0.05,20.950000000000003,0)" xlink:href="#E"/></g><path fill="#fff" d="M151-220L108 0H75l42-220H32l6-28h203l-5 28h-85" id="ak"/><g id="s"><use transform="matrix(0.05,0,0,0.05,0,0)" xlink:href="#ak"/><use transform="matrix(0.05,0,0,0.05,9.3,0)" xlink:href="#K"/><use transform="matrix(0.05,0,0,0.05,19.3,0)" xlink:href="#D"/><use transform="matrix(0.05,0,0,0.05,29.3,0)" xlink:href="#H"/><use transform="matrix(0.05,0,0,0.05,44.25,0)" xlink:href="#L"/></g><g id="t"><use transform="matrix(0.05,0,0,0.05,0,0)" xlink:href="#F"/><use transform="matrix(0.05,0,0,0.05,12,0)" xlink:href="#G"/><use transform="matrix(0.05,0,0,0.05,22,0)" xlink:href="#G"/></g><g id="u"><use transform="matrix(0.05,0,0,0.05,0,0)" xlink:href="#ai"/><use transform="matrix(0.05,0,0,0.05,12.950000000000001,0)" xlink:href="#ah"/><use transform="matrix(0.05,0,0,0.05,16.900000000000002,0)" xlink:href="#ad"/><use transform="matrix(0.05,0,0,0.05,26.900000000000002,0)" xlink:href="#ag"/><use transform="matrix(0.05,0,0,0.05,36.900000000000006,0)" xlink:href="#G"/></g><g id="v"><use transform="matrix(0.05,0,0,0.05,0,0)" xlink:href="#ai"/><use transform="matrix(0.05,0,0,0.05,12.950000000000001,0)" xlink:href="#E"/><use transform="matrix(0.05,0,0,0.05,18.900000000000002,0)" xlink:href="#K"/><use transform="matrix(0.05,0,0,0.05,28.900000000000002,0)" xlink:href="#G"/><use transform="matrix(0.05,0,0,0.05,38.900000000000006,0)" xlink:href="#K"/><use transform="matrix(0.05,0,0,0.05,48.900000000000006,0)" xlink:href="#J"/><use transform="matrix(0.05,0,0,0.05,58.900000000000006,0)" xlink:href="#C"/><use transform="matrix(0.05,0,0,0.05,63.900000000000006,0)" xlink:href="#I"/><use transform="matrix(0.05,0,0,0.05,67.85000000000001,0)" xlink:href="#D"/><use transform="matrix(0.05,0,0,0.05,77.85000000000001,0)" xlink:href="#ah"/><use transform="matrix(0.05,0,0,0.05,81.80000000000001,0)" xlink:href="#L"/></g><g id="w"><use transform="matrix(0.05,0,0,0.05,0,0)" xlink:href="#ae"/><use transform="matrix(0.05,0,0,0.05,5,0)" xlink:href="#ad"/><use transform="matrix(0.05,0,0,0.05,15,0)" xlink:href="#E"/></g><g id="x"><use transform="matrix(0.05,0,0,0.05,0,0)" xlink:href="#C"/><use transform="matrix(0.05,0,0,0.05,5,0)" xlink:href="#K"/><use transform="matrix(0.05,0,0,0.05,15,0)" xlink:href="#D"/><use transform="matrix(0.05,0,0,0.05,25,0)" xlink:href="#H"/><use transform="matrix(0.05,0,0,0.05,39.95,0)" xlink:href="#L"/></g><g id="y"><use transform="matrix(0.05,0,0,0.05,0,0)" xlink:href="#M"/><use transform="matrix(0.05,0,0,0.05,12.950000000000001,0)" xlink:href="#L"/><use transform="matrix(0.05,0,0,0.05,21.950000000000003,0)" xlink:href="#K"/><use transform="matrix(0.05,0,0,0.05,31.950000000000003,0)" xlink:href="#E"/><use transform="matrix(0.05,0,0,0.05,37.900000000000006,0)" xlink:href="#L"/></g><path fill="#fff" d="M14 0l48-248h34L48 0H14" id="al"/><path fill="#fff" d="M198-190L69 30C53 58 25 83-20 72c4-11-1-27 19-22 33-1 43-29 59-52L20-190h32L79-34l84-156h35" id="am"/><g id="z"><use transform="matrix(0.05,0,0,0.05,0,0)" xlink:href="#al"/><use transform="matrix(0.05,0,0,0.05,5,0)" xlink:href="#G"/><use transform="matrix(0.05,0,0,0.05,15,0)" xlink:href="#K"/><use transform="matrix(0.05,0,0,0.05,25,0)" xlink:href="#J"/><use transform="matrix(0.05,0,0,0.05,35,0)" xlink:href="#C"/><use transform="matrix(0.05,0,0,0.05,40,0)" xlink:href="#I"/><use transform="matrix(0.05,0,0,0.05,43.95,0)" xlink:href="#C"/><use transform="matrix(0.05,0,0,0.05,48.95,0)" xlink:href="#am"/></g><path fill="#fff" d="M238-179c0 84-86 86-175 82L45 0H11l48-248c82 0 179-12 179 69zm-34 1c0-53-64-42-116-43l-19 98c63 0 135 9 135-55" id="an"/><path fill="#fff" d="M89 0H52L20-190h33L74-25l89-165h34" id="ao"/><g id="A"><use transform="matrix(0.05,0,0,0.05,0,0)" xlink:href="#an"/><use transform="matrix(0.05,0,0,0.05,12,0)" xlink:href="#E"/><use transform="matrix(0.05,0,0,0.05,17.95,0)" xlink:href="#ad"/><use transform="matrix(0.05,0,0,0.05,27.950000000000003,0)" xlink:href="#ao"/><use transform="matrix(0.05,0,0,0.05,36.95,0)" xlink:href="#I"/><use transform="matrix(0.05,0,0,0.05,40.900000000000006,0)" xlink:href="#G"/><use transform="matrix(0.05,0,0,0.05,50.900000000000006,0)" xlink:href="#K"/><use transform="matrix(0.05,0,0,0.05,60.900000000000006,0)" xlink:href="#E"/></g></defs></g></svg>